Coordinates
version=1
nRows=5
nColumns=40
inDegrees=yes

Units are S.I. units (second, meters, Newtons, ...)
Angles are in degrees.

endheader
time	pelvis_tilt	pelvis_list	pelvis_rotation	pelvis_tx	pelvis_ty	pelvis_tz	hip_flexion_r	hip_adduction_r	hip_rotation_r	knee_angle_r	knee_angle_r_beta	ankle_angle_r	subtalar_angle_r	mtp_angle_r	hip_flexion_l	hip_adduction_l	hip_rotation_l	knee_angle_l	knee_angle_l_beta	ankle_angle_l	subtalar_angle_l	mtp_angle_l	lumbar_extension	lumbar_bending	lumbar_rotation	arm_flex_r	arm_add_r	arm_rot_r	elbow_flex_r	pro_sup_r	wrist_flex_r	wrist_dev_r	arm_flex_l	arm_add_l	arm_rot_l	elbow_flex_l	pro_sup_l	wrist_flex_l	wrist_dev_l
     24.71000000	     -5.03215650	     -6.22958629	     -2.90705187	      1.02790272	      0.93271075	      0.38657635	     33.50581867	     -6.24825277	     -6.14983912	     68.80469709	     68.80469709	     -2.03821154	    -13.77381768	     -1.19753390	     15.80002789	     -6.83673929	     -8.88772037	     23.26418370	     23.26418370	     14.08542271	    -11.76637224	      2.06163074	    -12.92817922	      6.59475410	      2.95663044	      9.91746033	    -12.88512639	     -2.28152459	     63.12425018	     45.87675033	      0.00000000	      0.00000000	      5.82532328	    -15.35474943	     -9.97727077	     66.76604578	     46.81362506	      0.00000000	      0.00000000
     24.72185714	     -5.07252219	     -6.13693201	     -3.30314048	      1.02612624	      0.93341831	      0.38616363	     34.63471294	     -6.19644737	     -6.33564240	     67.26778232	     67.26778232	     -1.78639797	    -13.05410424	     -1.63789559	     14.89737696	     -6.69819046	     -9.33050851	     22.57664995	     22.57664995	     14.26395977	    -11.58942229	      2.07604357	    -13.06144716	      6.47669113	      3.59871736	      7.55249159	    -13.38352111	     -1.85448592	     60.16053924	     45.94265764	      0.00000000	      0.00000000	      7.65512917	    -15.70904817	    -10.22307209	     68.63397716	     46.88792800	      0.00000000	      0.00000000
     24.73371429	     -5.11871444	     -6.09456004	     -3.66494255	      1.02438620	      0.93408596	      0.38583649	     35.56847636	     -6.01996765	     -6.55007615	     65.40418608	     65.40418608	     -1.85625534	    -12.53662215	     -2.46689455	     14.04614477	     -6.66666395	     -9.92687134	     21.96696288	     21.96696288	     14.45250942	    -11.02392374	      1.68927206	    -13.10656437	      6.38797421	      3.60297961	      6.69303066	    -13.26884773	     -1.08247897	     54.22532181	     46.08992014	      0.00000000	      0.00000000	      8.80780087	    -16.66045866	    -10.13467186	     70.96403580	     46.97213567	      0.00000000	      0.00000000
     24.74557143	     -5.16119969	     -6.07105256	     -4.00953751	      1.02266586	      0.93459666	      0.38558521	     36.38858256	     -5.78758165	     -6.74842169	     63.37251956	     63.37251956	     -1.82786578	    -11.78554141	     -2.89150721	     13.20142320	     -6.64639189	    -10.55012845	     21.34224990	     21.34224990	     14.59046666	    -10.52447780	      1.34560844	    -13.16155708	      6.34046160	      3.27086956	      6.13577631	    -13.12876021	     -0.00204582	     48.20808265	     46.21734076	      0.00000000	      0.00000000	      9.83444460	    -17.44683068	    -10.82903832	     73.34627982	     47.12665914	      0.00000000	      0.00000000
     24.75742857	     -5.18523291	     -6.02604599	     -4.30543136	      1.02102262	      0.93498768	      0.38536523	     37.03929771	     -5.56117729	     -6.94773219	     61.09230335	     61.09230335	     -1.63696425	    -10.81248327	     -2.79818723	     12.36891359	     -6.57931594	    -11.06732543	     20.75692832	     20.75692832	     14.79341587	    -10.04841411	      1.08183667	    -13.24325635	      6.28306539	      3.22414647	      5.07600550	    -13.16566055	      0.88871421	     43.62392984	     46.30036880	      0.00000000	      0.00000000	     11.12708712	    -18.02310274	    -11.54574428	     75.49242386	     47.27103981	      0.00000000	      0.00000000
